<svg xmlns="http://www.w3.org/2000/svg" xml:space="preserve" width="1500" height="152" data-id="lg_irg6caM2XZfiuMAMuh" data-version="1" viewBox="0 0 1500 152"><g data-padding="20"><g transform="translate(10 2.8)scale(.96317)"><rect width="409.875" height="140.756" x="156.286" y="-368.178" fill="none" rx="0" ry="0" transform="translate(473.48 374.06)"/><path d="M651.684 114.89h-11.21v-87.2h16.57l24.16 55.19 23.79-55.19h16.94v87.2h-11.83V42.77l-23.29 52.44h-11.71l-23.42-52.44Zm115.72 1.49q-13.95 0-22.11-8.9-8.16-8.91-8.16-24.98 0-9.71 3.68-17.37 3.67-7.67 10.27-12.09t15.32-4.42q9.35 0 15.51 4.05 6.17 4.05 9.28 10.9 3.12 6.85 3.12 15.07 0 4.36-.38 8.47h-45.34q1.12 9.09 6.35 14.2 5.24 5.11 13.83 5.11 5.61 0 10.09-1.19 4.48-1.18 8.6-3.05l2.61 9.59q-4.48 2-10.09 3.31-5.6 1.3-12.58 1.3m-18.93-38.36h35.5q0-9.47-4.74-14.58-4.73-5.1-13.08-5.1-7.22 0-11.95 5.04-4.74 5.05-5.73 14.64m70.38 36.87h-11.22V50.12h10.84v10.83q3.49-5.23 8.91-8.78t12.89-3.55q10.96 0 16.38 6.6t5.42 17.44v42.23h-11.21V73.91q0-6.98-3.3-11.21-3.3-4.24-9.16-4.24-5.73 0-10.84 4.05-5.1 4.05-8.71 9.53Zm83.58 1.5q-9.35 0-14.76-6.16-5.42-6.17-5.42-17.63V62.21h-11.21v-9.72h11.46l2.36-20.43h8.6v20.43h17.94v9.72h-17.94v31.26q0 7.23 3.05 10.09 3.05 2.87 7.29 2.87 3.11 0 5.91-1 2.81-.99 5.17-2.37l3.12 8.97q-2.49 1.5-6.73 2.93-4.23 1.43-8.84 1.43m52.44-.01q-9.22 0-16.57-4.29-7.35-4.3-11.52-11.96t-4.17-17.63q0-10.46 4.23-18.06 4.24-7.6 11.59-11.71 7.34-4.11 16.44-4.11 9.09 0 16.38 4.11t11.58 11.65q4.3 7.53 4.3 17.87t-4.24 18q-4.23 7.66-11.52 11.9-7.28 4.23-16.5 4.23m0-9.96q9.84 0 15.32-6.67 5.48-6.66 5.48-17.25 0-6.48-2.74-11.89-2.74-5.42-7.41-8.72t-10.65-3.3q-9.84 0-15.32 6.47-5.48 6.48-5.48 17.19 0 6.48 2.74 12.02 2.74 5.55 7.41 8.85t10.65 3.3m56.8 8.47h-11.21V50.12h10.84v14.07q1.61-4.11 4.35-7.66 2.75-3.55 6.86-5.73t9.59-2.18q1.87 0 3.73.19 1.87.18 3.12.56l-3.37 11.58q-2.36-.99-5.6-.99-4.61 0-8.78 2.61-4.17 2.62-6.85 8.1t-2.68 13.95Z"/><path d="M564.368 40.569 561.1 67.306 569.354 76V0l-3.223 26.25c-23.408 1.961-42.043 21.66-43.654 46.3l13.589-1.84c2.173-15.428 13.68-27.633 28.302-30.141m9.97 71.105 3.315-26.98-8.27-8.679h72.414l-24.381-3.313c-1.566-25.11-20.824-45.144-44.84-46.528l1.748 14.212c15.246 2.037 27.36 14.592 29.518 30.492l-26.19-3.557-8.268 8.694h-72.428l25.52 3.45c1.597 24.655 20.247 44.385 43.67 46.33l-1.763-14.288c-14.637-2.523-26.144-14.759-28.333-30.202l25.05 3.39L569.369 76v76l3.222-26.129c24.016-1.368 43.26-21.432 44.825-46.557l-13.574 1.839c-2.173 15.914-14.272 28.47-29.503 30.521"/></g><path fill="transparent" stroke="transparent" d="M478.5 0h543v152h-543z"/></g></svg>