<svg xmlns="http://www.w3.org/2000/svg" xmlns:xlink="http://www.w3.org/1999/xlink" version="1.1" width="16" height="16" viewBox="0 0 16 16" xml:space="preserve">
    <desc>
        Created with Fabric.js 5.4.0
    </desc>
    <defs/>
    <rect x="0" y="0" width="100%" height="100%" fill="transparent"/>
    <g transform="matrix(1 0 0 1 8.5 7.73)">
        <g style="">
            <g transform="matrix(1 0 0 1 0 0)">
                <rect x="-7.052235709749124" y="-5.6499999999999995" rx="0" ry="0" width="14.104471419498248" height="11.299999999999999" stroke="rgb(255,255,255)" stroke-opacity="0" stroke-width="1" stroke-dasharray="none" stroke-linecap="butt" stroke-dashoffset="0" stroke-linejoin="miter" stroke-miterlimit="4" fill="rgb(255,255,255)" fill-opacity="0" fill-rule="nonzero" opacity="1"/>
            </g>
            <g transform="matrix(1 0 0 1 -3.68 -0.86)">
                <path paint-order="stroke" transform=" translate(-4.82, -6.87)" d="M 2.63 10.37 L 1.12 10.37 L 4 3.37 L 5.67 3.37 L 8.52 10.37 L 6.95 10.37 L 6.24 8.53 L 3.35 8.53 L 2.63 10.37 Z M 4.8 4.79 L 3.8 7.37 L 5.8 7.37 L 4.8 4.79 Z" stroke-linecap="butt" stroke="rgb(255,255,255)" stroke-width="0" stroke-dasharray="none" stroke-dashoffset="0" stroke-linejoin="miter" stroke-miterlimit="4" fill="rgb(0,0,0)" fill-rule="nonzero" opacity="1"/>
            </g>
            <g transform="matrix(1 0 0 1 2.79 -0.86)">
                <path paint-order="stroke" transform=" translate(-11.29, -6.87)" d="M 9.55 4.66 L 9.55 9.08 L 10.77 9.08 Q 11.24 9.08 11.64 8.92 Q 12.05 8.75 12.35 8.45 Q 12.66 8.15 12.82 7.75 Q 12.99 7.35 12.99 6.88 L 12.99 6.88 Q 12.99 6.41 12.82 6.01 Q 12.65 5.6 12.35 5.3 Q 12.05 5 11.64 4.83 Q 11.24 4.66 10.77 4.66 L 10.77 4.66 L 9.55 4.66 Z M 10.79 10.37 L 8.1 10.37 L 8.1 3.37 L 10.79 3.37 Q 11.58 3.37 12.25 3.64 Q 12.92 3.9 13.42 4.38 Q 13.92 4.86 14.2 5.5 Q 14.49 6.14 14.49 6.88 L 14.49 6.88 Q 14.49 7.63 14.21 8.26 Q 13.93 8.89 13.42 9.37 Q 12.92 9.84 12.25 10.11 Q 11.58 10.37 10.79 10.37 L 10.79 10.37 Z" stroke-linecap="butt" stroke="rgb(255,255,255)" stroke-width="0" stroke-dasharray="none" stroke-dashoffset="0" stroke-linejoin="miter" stroke-miterlimit="4" fill="rgb(0,0,0)" fill-rule="nonzero" opacity="1"/>
            </g>
        </g>
    </g>
</svg>